<svg width="528" height="688" viewBox="0 0 528 688" fill="none" xmlns="http://www.w3.org/2000/svg">
<g id="pig">
<g id="Group 2">
<path id="Ellipse 1" d="M270 274.5C382.838 274.5 470 346.008 470 429.5C470 512.992 382.838 584.5 270 584.5C157.162 584.5 70 512.992 70 429.5C70 346.008 157.162 274.5 270 274.5Z" fill="#F6F7EF" stroke="#3D4C2B" stroke-width="20"/>
<circle id="Ellipse 3" cx="164.5" cy="372" r="17.5" fill="#3D4C2B"/>
</g>
<g id="Group 1">
<path id="Ellipse 2" d="M70 340.5C101.817 340.5 130 370.868 130 411.5C130 452.132 101.817 482.5 70 482.5C38.1831 482.5 10 452.132 10 411.5C10 370.868 38.1831 340.5 70 340.5Z" fill="#F6F7EF" stroke="#3D4C2B" stroke-width="20"/>
<circle id="Ellipse 4" cx="59.5" cy="391" r="12.5" fill="#3D4C2B"/>
<circle id="Ellipse 5" cx="59.5" cy="434" r="12.5" fill="#3D4C2B"/>
</g>
<path id="Vector 1" d="M249 215.5L155 303.5C186.2 285.1 238.667 275.833 256 273.5L249 215.5Z" fill="#F6F7EF" stroke="#3D4C2B" stroke-width="20" stroke-linejoin="round"/>
<path id="Vector 2" d="M381 255.5L280 274.5C303.2 274.5 341 284.5 370 295.5L381 255.5Z" fill="#F6F7EF" stroke="#3D4C2B" stroke-width="20" stroke-linejoin="round"/>
<path id="Vector 3" d="M512 363.5L503.624 358.037L503.624 358.037L512 363.5ZM512 313L521.298 309.32V309.32L512 313ZM449.325 292.054C445.212 295.741 444.868 302.063 448.554 306.175C452.241 310.288 458.563 310.632 462.676 306.946L456 299.5L449.325 292.054ZM468 393.5L470.688 403.132C479.052 400.798 488.801 396.151 497.578 390.394C506.278 384.687 514.948 377.286 520.376 368.963L512 363.5L503.624 358.037C500.301 363.133 494.138 368.731 486.609 373.67C479.157 378.558 471.281 382.202 465.312 383.868L468 393.5ZM512 363.5L520.376 368.963C530.312 353.727 530.274 331.995 521.298 309.32L512 313L502.702 316.68C510.351 336.005 508.688 350.273 503.624 358.037L512 363.5ZM512 313L521.298 309.32C513.961 290.784 498.432 283.555 484.224 282.411C477.244 281.848 470.41 282.699 464.552 284.341C458.872 285.934 453.281 288.507 449.325 292.054L456 299.5L462.676 306.946C463.552 306.16 465.977 304.713 469.951 303.599C473.747 302.534 478.207 301.991 482.618 302.346C491.189 303.037 498.827 306.891 502.702 316.68L512 313ZM162.5 565L152.525 564.297C151.253 582.35 152.014 599.661 158.133 612.788C161.307 619.597 166.011 625.473 172.68 629.563C179.31 633.63 187.176 635.5 196 635.5V625.5V615.5C190.002 615.5 185.957 614.245 183.137 612.515C180.355 610.809 178.068 608.215 176.26 604.337C172.415 596.089 171.247 583.15 172.475 565.703L162.5 565ZM196 625.5V635.5C206.756 635.5 215.631 633.446 222.786 629.513C230.024 625.535 234.907 619.956 238.094 613.918C244.174 602.397 244 589.148 244 582.5H234H224C224 589.852 223.826 598.103 220.406 604.582C218.843 607.544 216.602 610.09 213.152 611.987C209.619 613.929 204.245 615.5 196 615.5V625.5ZM323 584.5L313.031 583.713C312.387 591.869 314.233 604.213 320.517 614.84C327.126 626.016 338.885 635.5 357 635.5V625.5V615.5C347.115 615.5 341.374 610.818 337.733 604.66C333.767 597.954 332.613 589.797 332.969 585.287L323 584.5ZM357 625.5V635.5C366.638 635.5 375.259 634.073 382.524 630.355C390.045 626.507 395.357 620.59 398.83 613.066C402.18 605.806 403.751 597.217 404.384 587.778C405.02 578.282 404.74 567.283 403.981 554.889L394 555.5L384.019 556.111C384.76 568.217 384.98 578.218 384.429 586.441C383.874 594.721 382.57 600.569 380.67 604.684C378.893 608.535 376.58 610.931 373.414 612.551C369.991 614.302 364.862 615.5 357 615.5V625.5Z" fill="#3D4C2B"/>
<path id="Ellipse 6" d="M335.5 64.5C370.351 64.5 398 91.6908 398 124.5C398 157.309 370.351 184.5 335.5 184.5C300.649 184.5 273 157.309 273 124.5C273 91.6908 300.649 64.5 335.5 64.5Z" fill="#EEC863" stroke="#3D4C2B" stroke-width="20"/>
<path id="Ellipse 7" d="M335.5 96.5C352.288 96.5 365 109.295 365 124C365 138.705 352.288 151.5 335.5 151.5C318.712 151.5 306 138.705 306 124C306 109.295 318.712 96.5 335.5 96.5Z" fill="#FDF6E3" stroke="#3D4C2B" stroke-width="20"/>
<path id="Vector 4" d="M316.5 10V51" stroke="#3D4C2B" stroke-width="20" stroke-linecap="round" stroke-linejoin="round"/>
<path id="Vector 5" d="M364 19.5V41.5" stroke="#3D4C2B" stroke-width="20" stroke-linecap="round" stroke-linejoin="round"/>
<ellipse id="Ellipse 8" cx="274.5" cy="662.5" rx="182.5" ry="25" fill="#607749"/>
</g>
</svg>
